<svg width="6" height="8" viewBox="0 0 6 8" fill="none" xmlns="http://www.w3.org/2000/svg">
<path id="Icon" d="M3.00001 7.75002C2.47373 7.30112 1.98592 6.80899 1.54168 6.27877C0.875011 5.48252 0.0833439 4.29669 0.0833439 3.16669C0.082753 1.9865 0.793447 0.922267 1.88379 0.470603C2.97413 0.0189394 4.22921 0.268871 5.06334 1.10377C5.61187 1.64986 5.91914 2.39268 5.91669 3.16669C5.91669 4.29669 5.12501 5.48252 4.45834 6.27877C4.0141 6.80899 3.52629 7.30112 3.00001 7.75002ZM3.00001 1.91669C2.55343 1.91669 2.14077 2.15494 1.91748 2.54169C1.69419 2.92844 1.69419 3.40494 1.91748 3.79169C2.14077 4.17844 2.55343 4.41669 3.00001 4.41669C3.69037 4.41669 4.25001 3.85704 4.25001 3.16669C4.25001 2.47633 3.69037 1.91669 3.00001 1.91669Z" fill="#D9DFE8"/>
</svg>
