<svg width="5" height="6" viewBox="0 0 5 6" fill="none" xmlns="http://www.w3.org/2000/svg">
<path id="Icon" d="M2.49999 6C2.04889 5.64095 1.63077 5.24733 1.24999 4.82324C0.678569 4.18637 3.15592e-07 3.2379 3.15592e-07 2.33409C-0.000506168 1.39013 0.608657 0.538923 1.54323 0.177667C2.47781 -0.18359 3.55358 0.0163142 4.26855 0.684096C4.73871 1.12088 5.00209 1.71501 4.99999 2.33409C4.99999 3.2379 4.32141 4.18637 3.74998 4.82324C3.3692 5.24733 2.95108 5.64095 2.49999 6ZM2.49999 1.3343C2.11721 1.3343 1.7635 1.52486 1.57211 1.83419C1.38072 2.14353 1.38072 2.52465 1.57211 2.83399C1.7635 3.14332 2.11721 3.33388 2.49999 3.33388C3.09172 3.33388 3.57141 2.88626 3.57141 2.33409C3.57141 1.78192 3.09172 1.3343 2.49999 1.3343Z" fill="#D9DFE8"/>
</svg>
